<?xml version="1.0" encoding="UTF-8"?>
<svg version="1.1" xmlns="http://www.w3.org/2000/svg" width="1024" height="1024">
<path d="M0 0 C337.92 0 675.84 0 1024 0 C1024 337.92 1024 675.84 1024 1024 C686.08 1024 348.16 1024 0 1024 C0 686.08 0 348.16 0 0 Z " fill="#FEFEFE" transform="translate(0,0)"/>
<path d="M0 0 C0.89984619 -0.00067474 1.79969238 -0.00134949 2.72680664 -0.00204468 C61.2443405 0.06719995 118.86302879 15.89020811 168.5 47.25 C169.53640625 47.90226562 170.5728125 48.55453125 171.640625 49.2265625 C199.58812046 67.38496196 227.39231496 90.52745035 247.5 117.25 C248.43551245 118.4575626 249.37176685 119.66455061 250.30859375 120.87109375 C273.29298528 150.72229899 290.87054142 183.96007411 301.875 220 C302.26993652 221.28801514 302.26993652 221.28801514 302.67285156 222.60205078 C302.91229492 223.40884277 303.15173828 224.21563477 303.3984375 225.046875 C303.61161621 225.76198242 303.82479492 226.47708984 304.04443359 227.21386719 C304.5 229.25 304.5 229.25 304.5 233.25 C305.39203125 233.20359375 306.2840625 233.1571875 307.203125 233.109375 C308.37359375 233.07328125 309.5440625 233.0371875 310.75 233 C311.91015625 232.95359375 313.0703125 232.9071875 314.265625 232.859375 C318.28879485 233.34526508 318.96555664 234.15217513 321.5 237.25 C322.70011823 239.75285475 323.74959325 242.17061229 324.734375 244.75390625 C325.15870819 245.83344826 325.15870819 245.83344826 325.59161377 246.93479919 C326.18471205 248.44995266 326.7727371 249.96710073 327.35595703 251.48608398 C328.25005414 253.81264087 329.1607509 256.13216121 330.07421875 258.45117188 C330.64942234 259.92669979 331.22367434 261.4025991 331.796875 262.87890625 C332.20459137 263.91961021 332.20459137 263.91961021 332.62054443 264.9813385 C333.73171705 267.89021578 334.5 270.1071955 334.5 273.25 C335.16 273.25 335.82 273.25 336.5 273.25 C336.62004395 272.55704834 336.74008789 271.86409668 336.86376953 271.15014648 C337.98694887 266.03032785 339.9120821 261.1655147 341.68310547 256.23950195 C342.37099054 254.3236668 343.05108166 252.40519079 343.73046875 250.48632812 C344.16746094 249.26494141 344.60445312 248.04355469 345.0546875 246.78515625 C345.64999268 245.12045288 345.64999268 245.12045288 346.25732422 243.42211914 C349.6922856 234.6538572 349.6922856 234.6538572 352.5 233.25 C354.66490195 233.15314912 356.83293803 233.12020562 359 233.125 C360.1653125 233.12242187 361.330625 233.11984375 362.53125 233.1171875 C365.5 233.25 365.5 233.25 367.5 234.25 C366.90891072 238.64394161 365.8095389 242.37072956 364.12109375 246.46484375 C363.87725449 247.06117111 363.63341522 247.65749847 363.38218689 248.27189636 C362.57319996 250.24625053 361.75543959 252.21683982 360.9375 254.1875 C360.36418996 255.58098877 359.79144866 256.97471166 359.21923828 258.36865234 C357.98399269 261.37544683 356.74521115 264.38075441 355.50439453 267.38525391 C353.38344547 272.52587258 351.28306497 277.67479946 349.18359375 282.82421875 C348.10198045 285.47377642 347.01998715 288.12317847 345.93777466 290.77249146 C345.23256772 292.4993929 344.52787122 294.22650289 343.82369995 295.9538269 C342.83011412 298.38945144 341.83342423 300.8237834 340.8359375 303.2578125 C340.54267075 303.97841354 340.24940399 304.69901459 339.94725037 305.44145203 C335.32138147 316.70241235 335.32138147 316.70241235 331.5 319.25 C328.36328125 319.4453125 328.36328125 319.4453125 324.8125 319.375 C323.63300781 319.35695313 322.45351563 319.33890625 321.23828125 319.3203125 C319.88283203 319.28550781 319.88283203 319.28550781 318.5 319.25 C317.38696289 317.52099609 317.38696289 317.52099609 316.5 315.25 C317.11499023 313.14697266 317.11499023 313.14697266 318.30859375 310.9140625 C318.93411133 309.68816406 318.93411133 309.68816406 319.57226562 308.4375 C320.47831619 306.7368729 321.38456439 305.03635107 322.29101562 303.3359375 C322.70931641 302.51609375 323.12761719 301.69625 323.55859375 300.8515625 C323.95361084 300.11244629 324.34862793 299.37333008 324.75561523 298.61181641 C326.37875078 293.46186124 324.06779478 288.80536305 321.99609375 284.08203125 C321.50302734 282.94185547 321.00996094 281.80167969 320.50195312 280.62695312 C319.98568359 279.45068359 319.46941406 278.27441406 318.9375 277.0625 C317.91046196 274.71698438 316.88808974 272.36941845 315.87109375 270.01953125 C315.41661865 268.98417236 314.96214355 267.94881348 314.49389648 266.88208008 C313.5 264.25 313.5 264.25 313.5 261.25 C312.84 261.25 312.18 261.25 311.5 261.25 C311.809375 262.384375 312.11875 263.51875 312.4375 264.6875 C314.63845832 272.7576805 314.66761972 281.1385976 314.703125 289.44140625 C314.70882507 290.50374985 314.71452515 291.56609344 314.72039795 292.66062927 C314.72980624 294.90712504 314.73636525 297.15363435 314.74023438 299.40014648 C314.74982329 302.75075239 314.78083822 306.10071257 314.8125 309.45117188 C314.91078843 329.68059061 312.75788649 349.47052288 308.5 369.25 C308.26506836 370.37776855 308.26506836 370.37776855 308.02539062 371.52832031 C297.30833809 422.34193147 273.35887275 468.15133932 239.5 507.25 C238.98244141 507.85658447 238.46488281 508.46316895 237.93164062 509.08813477 C227.24205628 521.50628051 215.48352052 533.24538246 202.5 543.25 C201.37603878 544.17099083 200.25515246 545.09574199 199.13671875 546.0234375 C180.60160994 561.31676822 160.04534826 573.94792486 138.39697266 584.33398438 C136.60372995 585.19991058 134.82289431 586.0913954 133.04296875 586.984375 C106.59278708 599.92744931 77.53886092 607.84506572 48.5 612.25 C47.77087402 612.36182617 47.04174805 612.47365234 46.29052734 612.58886719 C33.4329788 614.4921326 20.4782976 614.91317139 7.5 615.25 C6.08025879 615.29302246 6.08025879 615.29302246 4.63183594 615.33691406 C-11.58885088 615.7844985 -27.42137492 614.33201712 -43.5 612.25 C-44.38671387 612.13785156 -45.27342773 612.02570312 -46.18701172 611.91015625 C-90.4069019 606.16201406 -134.74713914 589.59748937 -171.5 564.25 C-172.18578125 563.77916992 -172.8715625 563.30833984 -173.578125 562.82324219 C-182.12946768 556.92903214 -190.52732876 550.9152557 -198.5 544.25 C-199.46679688 543.4559375 -200.43359375 542.661875 -201.4296875 541.84375 C-207.75606213 536.60806197 -213.86519236 531.15839174 -219.875 525.5625 C-220.85557373 524.65455688 -220.85557373 524.65455688 -221.85595703 523.72827148 C-225.79718942 520.0233926 -229.42835425 516.1565296 -232.95019531 512.05151367 C-234.80497108 509.89549754 -236.74561269 507.8275481 -238.6875 505.75 C-257.0417241 485.36682255 -271.89237594 461.02400152 -283.5 436.25 C-283.88655762 435.4338623 -284.27311523 434.61772461 -284.67138672 433.77685547 C-294.4685312 412.88845738 -307.54569023 384.89169207 -306.5 361.25 C-307.07967529 361.27094727 -307.65935059 361.29189453 -308.2565918 361.31347656 C-310.90004924 361.39696807 -313.5432288 361.44876153 -316.1875 361.5 C-317.09951172 361.53351563 -318.01152344 361.56703125 -318.95117188 361.6015625 C-323.28404156 361.66458606 -325.80395395 361.65974786 -329.60546875 359.421875 C-331.5 357.25 -331.5 357.25 -332.125 354.25 C-331.5 351.25 -331.5 351.25 -329.51171875 349.078125 C-325.44326507 346.60855779 -322.33969672 346.79722194 -317.6875 347 C-316.89923828 347.01804687 -316.11097656 347.03609375 -315.29882812 347.0546875 C-313.36535739 347.10155952 -311.43251715 347.1732959 -309.5 347.25 C-309.69916016 346.08597656 -309.69916016 346.08597656 -309.90234375 344.8984375 C-316.8109575 302.63990957 -311.62639275 257.82582366 -298.5 217.25 C-298.04463867 215.83098389 -298.04463867 215.83098389 -297.58007812 214.38330078 C-281.5589806 165.31264542 -252.04497619 117.44208618 -212.890625 83.3359375 C-211.35422566 81.99535376 -209.84118449 80.62725103 -208.359375 79.2265625 C-183.37127407 55.72376827 -152.55780835 38.28783843 -121.5 24.25 C-120.83935547 23.94900391 -120.17871094 23.64800781 -119.49804688 23.33789062 C-82.33527985 6.67020442 -40.43340182 0.0274254 0 0 Z " fill="#ECECEC" transform="translate(494.5,207.75)"/>
<path d="M0 0 C5.58262944 38.21604867 -3.83528459 80.83461983 -27 112 C-27.60070312 112.82242188 -28.20140625 113.64484375 -28.8203125 114.4921875 C-47.24085529 138.61616196 -73.60016179 154.98182214 -103.81640625 159.5078125 C-115.07500859 160.82258475 -126.6903381 160.22506216 -138 160 C-136.82839508 156.85564388 -135.61369751 154.18922165 -133.6015625 151.50390625 C-133.12912109 150.8706543 -132.65667969 150.23740234 -132.16992188 149.58496094 C-131.40518555 148.58384277 -131.40518555 148.58384277 -130.625 147.5625 C-130.08681641 146.85512695 -129.54863281 146.14775391 -128.99414062 145.41894531 C-115.05083105 127.2535951 -99.27274713 109.88947945 -81 96 C-79.95230455 95.16541801 -78.90686773 94.32799555 -77.86328125 93.48828125 C-71.18918246 88.13838543 -64.36659145 83.01507481 -57.4375 78 C-56.6755835 77.44795898 -55.91366699 76.89591797 -55.12866211 76.32714844 C-51.49669809 73.71759582 -47.85621847 71.27204901 -44 69 C-73.99974499 82.03458625 -100.21417783 98.47755593 -124 121 C-124.93070312 121.8765625 -125.86140625 122.753125 -126.8203125 123.65625 C-132.80071879 129.44923615 -138.04864221 135.54834056 -143.1015625 142.15234375 C-143.52767319 142.69367447 -143.95378387 143.23500519 -144.39280701 143.79273987 C-146.10563738 146.06998169 -146.10563738 146.06998169 -147.7401123 148.95584106 C-153.06099185 157.35035109 -153.06099185 157.35035109 -158.21810913 159.07820129 C-162.02938172 159.43541054 -165.73917123 159.43375444 -169.5546875 159.27734375 C-170.94707003 159.26254362 -172.33951268 159.25266547 -173.73196411 159.24745178 C-176.63350845 159.22465565 -179.53054303 159.16340464 -182.43066406 159.07006836 C-186.14663564 158.95067355 -189.85970307 158.89713219 -193.57737541 158.86814022 C-197.13270436 158.83824594 -200.68732915 158.77866093 -204.2421875 158.71484375 C-204.91814846 158.70465651 -205.59410942 158.69446926 -206.29055405 158.68397331 C-208.20041519 158.6492393 -210.10979825 158.59067707 -212.01904297 158.53100586 C-213.10442352 158.50147324 -214.18980408 158.47194061 -215.30807495 158.44151306 C-218 158 -218 158 -219.85037231 156.65431213 C-221.64976217 154.06499342 -221.38225302 152.05802416 -221 149 C-219.8535614 147.33378601 -219.8535614 147.33378601 -218 146 C-215.28547668 145.63923645 -215.28547668 145.63923645 -211.96801758 145.65942383 C-210.10642754 145.65976372 -210.10642754 145.65976372 -208.20722961 145.66011047 C-206.85299316 145.67543032 -205.49876039 145.6910783 -204.14453125 145.70703125 C-202.7587683 145.71262749 -201.37299941 145.71689746 -199.98722839 145.71989441 C-196.34237236 145.73134117 -192.69787577 145.76080642 -189.05316162 145.79400635 C-185.33301658 145.82471115 -181.61281339 145.83840059 -177.89257812 145.85351562 C-170.59488833 145.88567669 -163.29749456 145.93687049 -156 146 C-156.00818253 145.38003143 -156.01636505 144.76006287 -156.02479553 144.12130737 C-156.05761811 141.26579339 -156.07770991 138.41031932 -156.09765625 135.5546875 C-156.11074829 134.57975342 -156.12384033 133.60481934 -156.1373291 132.6003418 C-156.23843054 113.24548192 -149.23576328 94.93302572 -137 80 C-136.47019531 79.30777344 -135.94039063 78.61554688 -135.39453125 77.90234375 C-120.47384904 59.37122486 -95.5098256 49.67151123 -74 41.25 C-49.2004927 31.50496698 -25.05223325 20.1237168 -4.875 2.4375 C-2 0 -2 0 0 0 Z " fill="#9CC54B" transform="translate(384,410)"/>
<path d="M0 0 C10.46855246 4.80788088 16.79811014 19.813525 21 30 C29.85758294 53.93239156 28.34736905 82.26284429 17.83837891 105.38037109 C5.48373265 131.08860474 -15.31264148 149.19604625 -41.99511719 158.58666992 C-67.5654148 167.28520458 -95.15193453 166.23620723 -119.7734375 154.71875 C-130.42064141 149.04711596 -140.12751933 142.18998215 -149 134 C-149 133.67 -149 133.34 -149 133 C-144.25363462 132.84968879 -139.50870625 132.74188344 -134.76049805 132.67041016 C-133.15152811 132.6405639 -131.54271608 132.59987 -129.93432617 132.54736328 C-120.02651223 132.23243744 -112.67014504 132.65339631 -103.82861328 137.52368164 C-87.32848087 146.13548042 -65.71953055 144.29522 -48.59375 138.93359375 C-36.34615614 134.51571168 -26.20027692 128.20027692 -17 119 C-16.28972656 118.28972656 -15.57945312 117.57945312 -14.84765625 116.84765625 C0.23233471 100.84144703 5.71296367 79.8739695 5.31640625 58.3828125 C4.87012573 47.85507382 2.13842029 38.0351445 -3.046875 28.8203125 C-4 27 -4 27 -4 25 C-4.66 25 -5.32 25 -6 25 C-6.20302734 25.83917969 -6.20302734 25.83917969 -6.41015625 26.6953125 C-13.00708744 51.2659185 -31.83123505 73.35485153 -53.54296875 86.09375 C-62.97208205 91.29308027 -72.17612138 95.28827686 -82.5 98.3125 C-83.31726563 98.55500488 -84.13453125 98.79750977 -84.9765625 99.04736328 C-97.52037073 102.52492767 -110.18479058 103.30992614 -123.140625 103.30078125 C-124.52447637 103.30468292 -125.90832656 103.30902052 -127.29217529 103.31376648 C-130.15592387 103.32113615 -133.01954886 103.3210004 -135.88330078 103.31567383 C-139.55180845 103.30980915 -143.21982262 103.32702018 -146.88824844 103.3500185 C-149.72952214 103.36471849 -152.5706747 103.3656341 -155.41197968 103.36250877 C-157.42118044 103.36326916 -159.43036249 103.3771237 -161.43951416 103.39118958 C-162.65217957 103.38496078 -163.86484497 103.37873199 -165.11425781 103.37231445 C-166.7151828 103.37325859 -166.7151828 103.37325859 -168.34844971 103.3742218 C-171 103 -171 103 -172.84442139 101.66423035 C-174.64680225 99.06849441 -174.38324579 97.06596629 -174 94 C-172.85766602 92.33555603 -172.85766602 92.33555603 -171 91 C-168.26147461 90.62818909 -168.26147461 90.62818909 -164.90234375 90.63110352 C-163.64252686 90.62422012 -162.38270996 90.61733673 -161.0847168 90.61024475 C-160.41016449 90.61342272 -159.73561218 90.61660069 -159.0406189 90.61987495 C-156.90934179 90.62902717 -154.77893742 90.61870656 -152.64770508 90.60325623 C-146.58741668 90.56333001 -140.527195 90.56191561 -134.46679688 90.56420898 C-111.92997915 90.55928441 -91.83758948 89.53817213 -71 80 C-70.39816895 79.72784668 -69.79633789 79.45569336 -69.17626953 79.17529297 C-60.72480983 75.31402527 -53.25100369 70.79673507 -46 65 C-45.47519043 64.58202148 -44.95038086 64.16404297 -44.40966797 63.73339844 C-23.40323874 46.87646345 -9.51594649 25.07285865 0 0 Z " fill="#274D83" transform="translate(386,490)"/>
<path d="M0 0 C2.24606774 1.53920471 4.04120182 3.09561288 6 5 C5.66777186 10.31565027 2.72402141 14.38063493 -1 18 C-5.73036305 19.23400775 -8.85753839 17.19440634 -12.953125 15.0234375 C-21.13528935 10.93235533 -31.71970611 10.27469467 -40.359375 13.09765625 C-49.38598305 17.30782792 -54.88632801 22.66916809 -58.30859375 32.0625 C-60.83050359 42.7770548 -59.43151493 53.62718656 -54.25 63.25 C-49.6194716 68.90953471 -44.42924665 73.6993307 -37 75 C-28.55263607 75.58996075 -20.39616176 75.04952022 -12 74 C-12 68.06 -12 62.12 -12 56 C-17.54973121 56.03957481 -17.54973121 56.03957481 -23.09936523 56.09008789 C-25.06645974 56.09723091 -27.03353621 56.05031893 -29 56 C-30 55 -30 55 -30.1328125 51.875 C-30.13023437 50.59625 -30.12765625 49.3175 -30.125 48 C-30.12886719 46.081875 -30.12886719 46.081875 -30.1328125 44.125 C-30 41 -30 41 -29 40 C-26.41810554 39.89908525 -23.863535 39.86028501 -21.28125 39.8671875 C-20.50817505 39.86623077 -19.7351001 39.86527405 -18.93859863 39.86428833 C-17.30102456 39.86360659 -15.66344781 39.86546043 -14.02587891 39.86962891 C-11.51068079 39.87497729 -8.99566127 39.86968374 -6.48046875 39.86328125 C-4.89322877 39.86394203 -3.3059889 39.8652232 -1.71875 39.8671875 C-0.96146606 39.86516327 -0.20418213 39.86313904 0.5760498 39.86105347 C5.88504868 39.88504868 5.88504868 39.88504868 7 41 C7.0927833 42.38160115 7.11747043 43.76788038 7.11352539 45.15258789 C7.11341209 46.47384422 7.11341209 46.47384422 7.11329651 47.8217926 C7.10813522 48.77907761 7.10297394 49.73636261 7.09765625 50.72265625 C7.0962413 51.69786728 7.09482635 52.67307831 7.09336853 53.67784119 C7.08775133 56.80609143 7.07519593 59.93427123 7.0625 63.0625 C7.05748722 65.17773334 7.05292393 67.29296781 7.04882812 69.40820312 C7.03777631 74.60549296 7.02102146 79.80274145 7 85 C5.12795969 85.96669072 3.25221963 86.92621837 1.375 87.8828125 C-0.19121094 88.68549561 -0.19121094 88.68549561 -1.7890625 89.50439453 C-15.19662563 95.74943192 -33.28354773 96.2690943 -47.40625 91.96484375 C-61.4742624 86.73171263 -70.86722583 77.89892162 -77.75 64.625 C-83.06053893 49.2244371 -82.75254068 32.96460383 -75.6796875 18.25390625 C-69.42921802 7.0338012 -59.95794221 -1.04007062 -47.625 -4.8125 C-46.08786311 -5.22557424 -44.54635707 -5.62290591 -43 -6 C-42.37681885 -6.17273438 -41.7536377 -6.34546875 -41.11157227 -6.5234375 C-27.23268592 -9.6557749 -12.42800716 -6.20518939 0 0 Z " fill="#284F82" transform="translate(534,534)"/>
<path d="M0 0 C7.59372761 5.58690237 12.6229913 13.46535196 14.39453125 22.76171875 C15.12633052 36.42764471 13.81083898 45.74525091 5.39453125 56.76171875 C-1.43308516 64.20443574 -9.38355908 67.36471405 -19.33984375 68 C-30.49052193 68.31027734 -38.16706114 66.89701655 -46.91796875 59.63671875 C-55.48363703 51.43411647 -58.55879496 41.50000456 -58.91796875 29.88671875 C-58.65194219 17.58690258 -54.64186932 9.44958979 -45.91796875 1.01171875 C-32.79661495 -9.80720882 -13.84389295 -8.78268477 0 0 Z " fill="#294F83" transform="translate(610.60546875,560.23828125)"/>
<path d="M0 0 C1.73056641 -0.02513672 1.73056641 -0.02513672 3.49609375 -0.05078125 C6.5625 0.3125 6.5625 0.3125 8.22216797 1.43408203 C10.1770037 4.17370063 9.99865177 6.39040818 10.07421875 9.73046875 C10.12739258 11.61088867 10.12739258 11.61088867 10.18164062 13.52929688 C10.20419922 14.83962891 10.22675781 16.14996094 10.25 17.5 C10.28317666 18.83532013 10.31766666 20.17060832 10.35351562 21.50585938 C10.43612057 24.77465504 10.50523229 28.04317812 10.5625 31.3125 C11.11719971 30.88590088 11.67189941 30.45930176 12.2434082 30.01977539 C17.5471304 26.17624631 21.20335532 24.38594269 27.75 24.75 C28.42224609 24.75193359 29.09449219 24.75386719 29.78710938 24.75585938 C35.19698425 24.89808588 39.21710989 26.34012401 43.35546875 29.8203125 C43.81566406 30.35398437 44.27585937 30.88765625 44.75 31.4375 C45.21792969 31.95570313 45.68585937 32.47390625 46.16796875 33.0078125 C50.27126095 39.78916376 51.00642125 46.75340982 50.92578125 54.52734375 C50.92652901 55.93277184 50.92652901 55.93277184 50.92729187 57.36659241 C50.92496778 59.32880801 50.91533878 61.29102755 50.89868164 63.25317383 C50.87487313 66.26605527 50.87815988 69.27806263 50.88476562 72.29101562 C50.87919509 74.2031303 50.87208916 76.11524125 50.86328125 78.02734375 C50.86464836 79.38036842 50.86464836 79.38036842 50.86604309 80.76072693 C50.85651108 81.59241898 50.84697906 82.42411102 50.8371582 83.28100586 C50.83255081 84.01330917 50.82794342 84.74561249 50.82319641 85.50010681 C50.5625 87.3125 50.5625 87.3125 48.5625 89.3125 C45.375 89.578125 45.375 89.578125 41.5625 89.5625 C40.304375 89.56765625 39.04625 89.5728125 37.75 89.578125 C34.5625 89.3125 34.5625 89.3125 32.5625 87.3125 C32.30421448 85.50442505 32.30421448 85.50442505 32.29125977 83.29345703 C32.28107315 82.46564728 32.27088654 81.63783752 32.26039124 80.78494263 C32.25825119 79.88911469 32.25611115 78.99328674 32.25390625 78.0703125 C32.22874488 76.18098652 32.20334688 74.29166367 32.17773438 72.40234375 C32.148985 69.41781433 32.12497383 66.43333949 32.10620117 63.44873047 C32.08455779 60.57230076 32.04511611 57.69651863 32.00390625 54.8203125 C32.00379044 53.92853302 32.00367462 53.03675354 32.0035553 52.11795044 C31.93688899 47.25699609 31.93688899 47.25699609 30.22241211 42.78076172 C27.18223386 40.09159684 23.64557529 39.84118199 19.68522644 39.91424561 C15.66885122 40.66777609 13.00735891 43.12999054 10.5625 46.3125 C9.60782127 49.49246543 9.65162511 52.49561439 9.73046875 55.796875 C9.72292068 56.69367981 9.71537262 57.59048462 9.70759583 58.51446533 C9.68913948 61.36484485 9.7174963 64.21228626 9.75 67.0625 C9.75600319 69.92626154 9.75226148 72.78964617 9.73884583 75.65338135 C9.73334019 77.43183197 9.74067687 79.21037729 9.76200867 80.9887085 C9.76917815 83.0976756 9.67482102 85.20651386 9.5625 87.3125 C7.5625 89.3125 7.5625 89.3125 4.0859375 89.5078125 C2.70299032 89.49451493 1.32011346 89.47066232 -0.0625 89.4375 C-1.12210938 89.42396484 -1.12210938 89.42396484 -2.203125 89.41015625 C-3.94806098 89.38657603 -5.69282295 89.35070461 -7.4375 89.3125 C-9.01418842 86.15912316 -8.58476387 82.77685656 -8.58276367 79.31445312 C-8.58612228 78.48832016 -8.5894809 77.66218719 -8.59294128 76.8110199 C-8.60246402 74.07191477 -8.60439494 71.33287066 -8.60546875 68.59375 C-8.60867999 66.69567845 -8.61204395 64.79760715 -8.61555481 62.89953613 C-8.62154909 58.91820705 -8.62339436 54.93689969 -8.62280273 50.95556641 C-8.622701 45.8439904 -8.63636378 40.73255295 -8.65357494 35.62100983 C-8.66467024 31.700616 -8.66672272 27.78025595 -8.66619301 23.85984802 C-8.66737646 21.97472149 -8.67181851 20.08959418 -8.67952538 18.20448303 C-8.68927727 15.57307094 -8.68646657 12.94196344 -8.68041992 10.31054688 C-8.68603943 9.52606674 -8.69165894 8.74158661 -8.69744873 7.93333435 C-8.6553562 0.75754257 -6.90914176 0.0231075 0 0 Z " fill="#A1C654" transform="translate(705.4375,415.6875)"/>
<path d="M0 0 C1.07636719 -0.01224609 2.15273438 -0.02449219 3.26171875 -0.03710938 C9.66687437 -0.04881185 15.30622133 0.54146428 21.5 2.1875 C18.45278329 4.66822376 15.44052302 6.22350061 11.828125 7.75390625 C10.70035645 8.23448486 9.57258789 8.71506348 8.41064453 9.21020508 C7.20263184 9.7183374 5.99461914 10.22646973 4.75 10.75 C3.49183306 11.2842982 2.23386 11.81905318 0.97607422 12.35424805 C-6.10947798 15.36326236 -13.21757522 18.3155242 -20.3359375 21.24609375 C-48.96545491 33.0585296 -74.64248199 48.69473581 -87.41650391 78.3125 C-89.7842664 84.16980314 -91.96637423 90.05299691 -93.5 96.1875 C-99.77 96.1875 -106.04 96.1875 -112.5 96.1875 C-108.98520707 67.43010333 -93.33690161 42.35837908 -70.96484375 24.2734375 C-62.42797066 17.63729507 -53.34447212 12.61099558 -43.5 8.1875 C-42.34242188 7.66414063 -41.18484375 7.14078125 -39.9921875 6.6015625 C-36.40353632 5.14843976 -32.86530987 4.0583477 -29.125 3.0625 C-27.90039062 2.72992188 -26.67578125 2.39734375 -25.4140625 2.0546875 C-17.03009895 0.05855629 -8.58016893 0.00513783 0 0 Z " fill="#9DC44C" transform="translate(313.5,425.8125)"/>
<path d="M0 0 C7.53392978 4.56887691 11.45329064 11.13330943 14.18359375 19.32421875 C14.30288395 21.32163611 14.3588331 23.32327999 14.37109375 25.32421875 C14.38527344 26.37609375 14.39945313 27.42796875 14.4140625 28.51171875 C14.18359375 31.32421875 14.18359375 31.32421875 12.18359375 34.32421875 C10.34860229 34.6849823 10.34860229 34.6849823 8.10107422 34.66479492 C7.2603537 34.66456833 6.41963318 34.66434174 5.55343628 34.66410828 C4.64506012 34.64862442 3.73668396 34.63314056 2.80078125 34.6171875 C1.87137726 34.61294266 0.94197327 34.60869781 -0.01559448 34.60432434 C-2.99115681 34.58749887 -5.96604781 34.54983978 -8.94140625 34.51171875 C-10.9557194 34.49667691 -12.97004314 34.48298763 -14.984375 34.47070312 C-19.92864504 34.43758269 -24.87241174 34.38577404 -29.81640625 34.32421875 C-29.05902069 35.94070293 -28.28979244 37.55164179 -27.515625 39.16015625 C-27.08854248 40.05782715 -26.66145996 40.95549805 -26.22143555 41.88037109 C-24.1163579 45.54185281 -21.85182261 47.19933661 -17.81640625 48.32421875 C-10.68525167 49.57978956 -5.6118301 47.72822378 0.640625 44.3203125 C3.6795039 43.12996823 5.1225921 43.27987701 8.18359375 44.32421875 C10.78486274 46.78857885 12.12707097 48.19376315 12.30859375 51.82421875 C10.12631145 56.67373498 6.20990683 58.82006495 1.62109375 61.07421875 C-7.22243505 64.2900474 -18.225845 65.01916758 -27.19140625 61.82421875 C-34.57660187 58.32855949 -40.8887402 52.9077386 -44.109375 45.3046875 C-47.66937218 35.3327617 -48.78055014 24.52333935 -44.19921875 14.671875 C-35.10687822 -0.76455624 -16.78344656 -7.85432228 0 0 Z " fill="#A2C655" transform="translate(615.81640625,442.67578125)"/>
<path d="M0 0 C1.07443863 -0.00622879 2.14887726 -0.01245758 3.25587463 -0.01887512 C4.41530075 -0.00966537 5.57472687 -0.00045563 6.76928711 0.0090332 C8.55368446 0.00828545 8.55368446 0.00828545 10.37413025 0.00752258 C12.89006215 0.00986437 15.40599634 0.01959893 17.921875 0.03613281 C21.78463556 0.05974114 25.64670706 0.05669231 29.50952148 0.05004883 C31.95028083 0.05562479 34.39103726 0.06273415 36.83178711 0.0715332 C37.99323746 0.0706218 39.15468781 0.06971039 40.35133362 0.06877136 C41.95826332 0.08306938 41.95826332 0.08306938 43.59765625 0.09765625 C45.01637779 0.10456734 45.01637779 0.10456734 46.46376038 0.11161804 C48.73413086 0.37231445 48.73413086 0.37231445 50.73413086 2.37231445 C50.96459961 5.3762207 50.96459961 5.3762207 50.92163086 8.93481445 C50.91518555 10.11172852 50.90874023 11.28864258 50.90209961 12.5012207 C50.73413086 15.37231445 50.73413086 15.37231445 49.73413086 16.37231445 C46.84979266 16.46096653 43.98950928 16.48752741 41.10522461 16.4699707 C39.8088784 16.46784828 39.8088784 16.46784828 38.48634338 16.46568298 C35.71473794 16.46006684 32.94321206 16.44751164 30.17163086 16.43481445 C28.29728306 16.42980153 26.42293401 16.42523826 24.54858398 16.42114258 C19.94371065 16.41094126 15.33901026 16.39136913 10.73413086 16.37231445 C10.73413086 23.63231445 10.73413086 30.89231445 10.73413086 38.37231445 C21.62413086 38.37231445 32.51413086 38.37231445 43.73413086 38.37231445 C43.73413086 42.99231445 43.73413086 47.61231445 43.73413086 52.37231445 C42.73413086 53.37231445 42.73413086 53.37231445 39.68310547 53.48583984 C38.33421815 53.4856808 36.98532472 53.47999057 35.63647461 53.4699707 C34.57318687 53.46784828 34.57318687 53.46784828 33.48841858 53.46568298 C31.21611374 53.46006888 28.94390611 53.44751408 26.67163086 53.43481445 C25.1345229 53.42980127 23.59741341 53.42523805 22.06030273 53.42114258 C18.28487444 53.41009488 14.50951915 53.39282087 10.73413086 53.37231445 C10.74460449 54.36150879 10.75507813 55.35070312 10.76586914 56.36987305 C10.80202105 60.03373609 10.82501368 63.69758331 10.84399414 67.36157227 C10.85406274 68.94851328 10.86771853 70.5354357 10.88500977 72.12231445 C10.90922087 74.40100692 10.92060508 76.67945451 10.92944336 78.95825195 C10.93976593 79.6697641 10.9500885 80.38127625 10.96072388 81.11434937 C10.96112508 82.86863111 10.85615295 84.62228154 10.73413086 86.37231445 C8.24202647 88.86441885 6.73052298 88.63247106 3.32397461 88.64575195 C2.28950195 88.63415039 2.28950195 88.63415039 1.23413086 88.62231445 C0.54448242 88.63004883 -0.14516602 88.6377832 -0.85571289 88.64575195 C-6.01253621 88.62564738 -6.01253621 88.62564738 -8.26586914 86.37231445 C-8.46954356 83.73839944 -8.54907098 81.20918323 -8.54052734 78.57373047 C-8.54563828 77.76871094 -8.55074921 76.96369141 -8.55601501 76.13427734 C-8.56995077 73.46485016 -8.56895125 70.79568001 -8.56665039 68.1262207 C-8.5705352 66.27538455 -8.57486942 64.4245493 -8.57963562 62.57371521 C-8.58710645 58.69071566 -8.58680037 54.80780702 -8.58154297 50.92480469 C-8.57574789 45.94327632 -8.59267603 40.96211969 -8.61588764 35.98065281 C-8.63060391 32.15713822 -8.63149955 28.33371359 -8.62837791 24.5101757 C-8.62889221 22.67332155 -8.63415022 20.83646249 -8.64418983 18.9996357 C-8.65649596 16.43294091 -8.64979791 13.86697566 -8.63818359 11.30029297 C-8.64582733 10.53810959 -8.65347107 9.77592621 -8.66134644 8.99064636 C-8.6323708 6.10061311 -8.59041011 3.90831713 -7.07171631 1.40008545 C-4.61206225 0.00021001 -2.82791058 -0.00188035 0 0 Z " fill="#A1C754" transform="translate(464.265869140625,416.627685546875)"/>
<path d="M0 0 C1.1653125 -0.00257813 2.330625 -0.00515625 3.53125 -0.0078125 C6.5 0.125 6.5 0.125 8.5 1.125 C7.90891072 5.51894161 6.8095389 9.24572956 5.12109375 13.33984375 C4.87725449 13.93617111 4.63341522 14.53249847 4.38218689 15.14689636 C3.57319996 17.12125053 2.75543959 19.09183982 1.9375 21.0625 C1.36418996 22.45598877 0.79144866 23.84971166 0.21923828 25.24365234 C-1.01600731 28.25044683 -2.25478885 31.25575441 -3.49560547 34.26025391 C-5.61655453 39.40087258 -7.71693503 44.54979946 -9.81640625 49.69921875 C-10.89801955 52.34877642 -11.98001285 54.99817847 -13.06222534 57.64749146 C-13.76743228 59.3743929 -14.47212878 61.10150289 -15.17630005 62.8288269 C-16.16988588 65.26445144 -17.16657577 67.6987834 -18.1640625 70.1328125 C-18.45732925 70.85341354 -18.75059601 71.57401459 -19.05274963 72.31645203 C-23.67861853 83.57741235 -23.67861853 83.57741235 -27.5 86.125 C-30.63671875 86.3203125 -30.63671875 86.3203125 -34.1875 86.25 C-35.36699219 86.23195313 -36.54648437 86.21390625 -37.76171875 86.1953125 C-38.66535156 86.17210937 -39.56898438 86.14890625 -40.5 86.125 C-41.61303711 84.39599609 -41.61303711 84.39599609 -42.5 82.125 C-41.88500977 80.02197266 -41.88500977 80.02197266 -40.69140625 77.7890625 C-40.27439453 76.97179687 -39.85738281 76.15453125 -39.42773438 75.3125 C-38.52168381 73.6118729 -37.61543561 71.91135107 -36.70898438 70.2109375 C-36.29068359 69.39109375 -35.87238281 68.57125 -35.44140625 67.7265625 C-35.04638916 66.98744629 -34.65137207 66.24833008 -34.24438477 65.48681641 C-32.53030799 60.04831896 -35.20574288 54.95881154 -37.37890625 49.98828125 C-37.66699661 49.31493744 -37.95508698 48.64159363 -38.25190735 47.94784546 C-38.86625275 46.51421829 -39.48359284 45.08187125 -40.10369873 43.65072632 C-41.06841426 41.42384795 -42.02479482 39.19355673 -42.97900391 36.9621582 C-45.28871369 31.56564932 -47.61280796 26.17541271 -49.94384766 20.78808594 C-51.09263818 18.13170213 -52.23422369 15.47233134 -53.375 12.8125 C-53.86528687 11.69645386 -53.86528687 11.69645386 -54.36547852 10.55786133 C-55.84143284 7.11314586 -56.5 4.94309901 -56.5 1.125 C-50.89 1.125 -45.28 1.125 -39.5 1.125 C-35.51916301 8.76390341 -32.25100569 16.51569172 -29.1875 24.5625 C-28.73310547 25.73232422 -28.27871094 26.90214844 -27.81054688 28.10742188 C-27.38193359 29.22568359 -26.95332031 30.34394531 -26.51171875 31.49609375 C-25.93103638 33.0109436 -25.93103638 33.0109436 -25.33862305 34.55639648 C-24.5 37.125 -24.5 37.125 -24.5 40.125 C-23.84 40.125 -23.18 40.125 -22.5 40.125 C-22.37995605 39.43204834 -22.25991211 38.73909668 -22.13623047 38.02514648 C-21.01305113 32.90532785 -19.0879179 28.0405147 -17.31689453 23.11450195 C-16.62900946 21.1986668 -15.94891834 19.28019079 -15.26953125 17.36132812 C-14.83253906 16.13994141 -14.39554688 14.91855469 -13.9453125 13.66015625 C-13.54844238 12.550354 -13.15157227 11.44055176 -12.74267578 10.29711914 C-8.70124411 -0.01925054 -8.70124411 -0.01925054 0 0 Z " fill="#A1C552" transform="translate(853.5,440.875)"/>
<path d="M0 0 C1.58203125 1.12890625 1.58203125 1.12890625 2.83203125 3.50390625 C2.46928129 7.31278085 1.060759 9.25880044 -1.41796875 12.12890625 C-3.79296875 13.19140625 -3.79296875 13.19140625 -6.41796875 13.12890625 C-7.24296875 12.65453125 -8.06796875 12.18015625 -8.91796875 11.69140625 C-14.24106742 9.31502292 -19.66310351 9.70079038 -25.41796875 10.12890625 C-26.71430496 11.1953574 -26.71430496 11.1953574 -26.48046875 13.69140625 C-26.45984375 14.49578125 -26.43921875 15.30015625 -26.41796875 16.12890625 C-21.63332319 18.6619539 -16.87348742 20.74917254 -11.79296875 22.62890625 C-4.92907227 25.24750259 0.42721819 27.38305693 3.88671875 34.21484375 C5.75778314 39.36552663 4.94695113 43.79188728 3.08203125 48.75390625 C0.13454302 54.7842797 -4.43573749 58.09331043 -10.69140625 60.265625 C-20.66472553 62.57600609 -31.4259724 62.33757732 -40.41796875 57.12890625 C-43.54296875 54.87890625 -43.54296875 54.87890625 -45.41796875 53.12890625 C-45.1452815 49.22038905 -44.58190826 47.34293839 -42.16796875 44.19140625 C-39.41796875 42.12890625 -39.41796875 42.12890625 -37.10546875 42.06640625 C-34.80884662 42.97437314 -32.82278676 44.0051896 -30.66796875 45.19140625 C-26.29962544 47.46658506 -22.27457754 47.91399715 -17.41796875 47.12890625 C-15.2110671 46.17219378 -15.2110671 46.17219378 -13.41796875 45.12890625 C-13.41796875 43.14890625 -13.41796875 41.16890625 -13.41796875 39.12890625 C-17.71998577 36.81856378 -21.69879868 34.96251398 -26.41796875 33.69140625 C-32.8966342 31.82754404 -37.62190801 29.32908065 -41.91796875 24.06640625 C-44.3697845 19.0752099 -44.16127752 13.52728003 -43.41796875 8.12890625 C-40.555797 2.19255003 -35.77005794 -1.87835344 -29.6328125 -4.3359375 C-19.65274211 -6.74734781 -8.94212605 -4.77971629 0 0 Z " fill="#A1C653" transform="translate(682.41796875,444.87109375)"/>
<path d="M0 0 C1.1653125 0.00515625 2.330625 0.0103125 3.53125 0.015625 C4.6965625 0.01046875 5.861875 0.0053125 7.0625 0 C10.03125 0.265625 10.03125 0.265625 12.03125 2.265625 C12.29626465 5.15014648 12.29626465 5.15014648 12.31835938 8.88671875 C12.32519241 9.56654816 12.33202545 10.24637756 12.33906555 10.94680786 C12.35266578 12.42439458 12.36171122 13.90202856 12.36677551 15.37966919 C12.37504589 17.71609009 12.39553208 20.05211659 12.41931152 22.38842773 C12.47580392 28.19071175 12.5109595 33.99309146 12.54693604 39.79553223 C12.57813818 44.69747193 12.61729919 49.5992209 12.66719055 54.50100708 C12.68731219 56.80660511 12.69558903 59.11205692 12.70349121 61.41772461 C12.7164596 62.82666563 12.72997932 64.23560172 12.74414062 65.64453125 C12.75143188 66.8776001 12.75872314 68.11066895 12.76623535 69.38110352 C12.73300269 72.39367664 12.73300269 72.39367664 15.03125 74.265625 C17.35673007 74.95918923 19.69005445 75.62711712 22.03125 76.265625 C23.69686399 77.93123899 23.20240945 79.92525205 23.21875 82.203125 C23.23292969 83.09902344 23.24710938 83.99492187 23.26171875 84.91796875 C23.03125 87.265625 23.03125 87.265625 21.03125 89.265625 C16.2301868 90.89043896 11.02117446 90.80077632 6.03125 90.265625 C2.53125 88.453125 2.53125 88.453125 0.03125 86.265625 C-0.54625 85.79125 -1.12375 85.316875 -1.71875 84.828125 C-5.11721602 80.58004248 -5.25824186 75.98250129 -5.22753906 70.75317383 C-5.2310437 70.01438492 -5.23454834 69.27559601 -5.23815918 68.51441956 C-5.2469292 66.08373495 -5.241146 63.65334357 -5.234375 61.22265625 C-5.23572258 59.53065434 -5.23766389 57.83865281 -5.24017334 56.14665222 C-5.24311782 52.60692647 -5.23884711 49.06730186 -5.22949219 45.52758789 C-5.21807182 40.98442235 -5.22467765 36.44149245 -5.23663712 31.89833546 C-5.24385168 28.40771191 -5.24157011 24.9171446 -5.23638153 21.42651939 C-5.23504527 19.75072896 -5.23669194 18.07493346 -5.24134064 16.39914894 C-5.24640214 14.06259166 -5.23870243 11.72642095 -5.22753906 9.38989258 C-5.23158752 8.69428223 -5.23563599 7.99867188 -5.23980713 7.28198242 C-5.19865989 2.6489868 -5.1077102 0.45700565 0 0 Z " fill="#9FC451" transform="translate(773.96875,415.734375)"/>
<path d="M0 0 C1.06605469 0.00644531 2.13210938 0.01289063 3.23046875 0.01953125 C5.8125 0.1875 5.8125 0.1875 6.8125 1.1875 C6.91159302 3.51910055 6.94220504 5.85379942 6.9375 8.1875 C6.94136719 10.105625 6.94136719 10.105625 6.9453125 12.0625 C6.8125 15.1875 6.8125 15.1875 5.8125 16.1875 C3.5843078 16.29374493 1.35476958 16.37226118 -0.875 16.4375 C-6.84951085 16.71708888 -6.84951085 16.71708888 -11.9375 19.5 C-16.03917663 24.39922486 -16.48746751 28.07286959 -16.53125 34.3828125 C-16.5458728 35.17146698 -16.56049561 35.96012146 -16.57556152 36.77267456 C-16.63774791 40.14011746 -16.6775344 43.50773935 -16.71923828 46.87548828 C-16.75289828 49.33646107 -16.79801271 51.79703944 -16.84375 54.2578125 C-16.8490271 55.02239777 -16.8543042 55.78698303 -16.85974121 56.57473755 C-16.96185503 61.96185503 -16.96185503 61.96185503 -19.1875 64.1875 C-22.41015625 64.41796875 -22.41015625 64.41796875 -26.25 64.375 C-27.51972656 64.36855469 -28.78945313 64.36210937 -30.09765625 64.35546875 C-33.1875 64.1875 -33.1875 64.1875 -34.1875 63.1875 C-34.28665795 61.29051151 -34.31549314 59.38981213 -34.31689453 57.49023438 C-34.32004669 56.27227173 -34.32319885 55.05430908 -34.32644653 53.79943848 C-34.32465675 52.46004195 -34.3226058 51.12064576 -34.3203125 49.78125 C-34.3209856 48.4174396 -34.32195567 47.05362932 -34.32321167 45.68981934 C-34.32468838 42.82819479 -34.32253497 39.9666014 -34.31787109 37.10498047 C-34.31217381 33.42931386 -34.31545296 29.75372026 -34.32144356 26.07805634 C-34.32504991 23.26087896 -34.32391025 20.44371902 -34.32131577 17.62654114 C-34.3206467 16.27089937 -34.32147421 14.91525604 -34.32379532 13.55961609 C-34.32632301 11.66799956 -34.32179014 9.77637751 -34.31689453 7.88476562 C-34.31609894 6.80634399 -34.31530334 5.72792236 -34.31448364 4.61682129 C-34.1875 2.1875 -34.1875 2.1875 -33.1875 1.1875 C-31.00110547 1.11491054 -28.81249611 1.10376217 -26.625 1.125 C-24.82869141 1.13853516 -24.82869141 1.13853516 -22.99609375 1.15234375 C-22.06925781 1.16394531 -21.14242187 1.17554688 -20.1875 1.1875 C-19.1975 4.1575 -18.2075 7.1275 -17.1875 10.1875 C-16.72859375 9.63320313 -16.2696875 9.07890625 -15.796875 8.5078125 C-15.18328125 7.78335937 -14.5696875 7.05890625 -13.9375 6.3125 C-13.33421875 5.59320313 -12.7309375 4.87390625 -12.109375 4.1328125 C-8.31345222 0.29059798 -5.32775068 -0.07138277 0 0 Z " fill="#A0C653" transform="translate(558.1875,440.8125)"/>
<path d="M0 0 C4.80817423 2.6990123 7.70906008 5.93854916 9.7890625 11.1171875 C10.32014959 13.9547684 10.36317514 16.67428355 10.2890625 19.5546875 C10.27697754 20.30387451 10.26489258 21.05306152 10.25244141 21.82495117 C9.99355953 29.0148069 8.51375403 33.32263209 3.3515625 38.6171875 C-2.12961239 40.92505061 -7.35349762 40.85495665 -13.2109375 40.1171875 C-17.7966467 37.9824608 -20.00812933 35.63874112 -22.2109375 31.1171875 C-24.43104358 24.45686925 -24.4706096 15.10520768 -22.33984375 8.359375 C-17.63150399 0.23941856 -8.95398014 -3.57526415 0 0 Z " fill="#E8EAEA" transform="translate(595.2109375,570.8828125)"/>
<path d="M0 0 C1.01755371 -0.00788544 1.01755371 -0.00788544 2.05566406 -0.01593018 C4.29776035 -0.02913276 6.53914651 -0.02039179 8.78125 -0.01025391 C10.3391941 -0.01227458 11.89713727 -0.01518597 13.45507812 -0.01895142 C16.72014369 -0.0233751 19.98496305 -0.0169425 23.25 -0.00292969 C27.43676349 0.01416247 31.62295007 0.00432148 35.80969238 -0.01364708 C39.02673699 -0.02448387 42.24364465 -0.02103911 45.46069336 -0.0132637 C47.0044766 -0.01126139 48.54827225 -0.01372207 50.09204102 -0.02070236 C52.24919604 -0.02831541 54.40541478 -0.01671613 56.5625 0 C57.79033203 0.00238678 59.01816406 0.00477356 60.28320312 0.00723267 C63.28125 0.38818359 63.28125 0.38818359 65.20898438 1.72103882 C66.28125 3.38818359 66.28125 3.38818359 66.15625 6.45068359 C65.28125 9.38818359 65.28125 9.38818359 62.28125 11.38818359 C59.276474 11.64888 59.276474 11.64888 55.54663086 11.6628418 C54.86665543 11.66795273 54.18667999 11.67306366 53.48609924 11.67832947 C51.23934116 11.6922259 48.99288969 11.69126915 46.74609375 11.68896484 C45.18575425 11.69285089 43.6254158 11.69718537 42.06507874 11.70195007 C38.7958737 11.70941174 35.52677667 11.70912079 32.25756836 11.70385742 C28.06176667 11.69805354 23.86640509 11.71501583 19.67067623 11.7382021 C16.44940087 11.75290809 13.22823238 11.75381561 10.0069294 11.75069237 C8.45952035 11.75120686 6.91210552 11.75646848 5.36472893 11.76650429 C3.20501627 11.77879543 1.04617259 11.77212303 -1.11352539 11.76049805 C-2.34357803 11.76112747 -3.57363068 11.7617569 -4.84095764 11.7624054 C-5.79062912 11.6389122 -6.7403006 11.51541901 -7.71875 11.38818359 C-9.87377531 8.15564563 -10.18731135 7.13667436 -9.71875 3.38818359 C-7.18392428 -0.37388554 -4.28016273 0.0083202 0 0 Z " fill="#264B7F" transform="translate(233.71875,602.61181640625)"/>
<path d="M0 0 C5.05225893 3.78363003 8.19667108 7.73414064 11.4375 13.125 C11.91123047 13.91052246 12.38496094 14.69604492 12.87304688 15.50537109 C22.24225244 31.58280037 28.07132244 50.27169659 27 69 C26.67 69 26.34 69 26 69 C25.8040625 68.04222656 25.608125 67.08445312 25.40625 66.09765625 C21.49051853 48.20657923 13.89451373 32.97241481 0.9375 19.875 C-2.87093627 15.75246589 -2.87093627 15.75246589 -3.4140625 12.5859375 C-3.18671847 10.24194213 -2.73227263 8.23513449 -2 6 C-1.649375 4.824375 -1.29875 3.64875 -0.9375 2.4375 C-0.628125 1.633125 -0.31875 0.82875 0 0 Z " fill="#A0C652" transform="translate(393,465)"/>
<path d="M0 0 C1.47631836 1.3034668 1.47631836 1.3034668 2.83984375 2.94921875 C3.34580078 3.55056641 3.85175781 4.15191406 4.37304688 4.77148438 C4.88931641 5.40376953 5.40558594 6.03605469 5.9375 6.6875 C6.44990234 7.30044922 6.96230469 7.91339844 7.49023438 8.54492188 C9.00203208 10.35638977 10.50143435 12.17758125 12 14 C12.95869266 15.1531282 13.91825433 16.30553477 14.87890625 17.45703125 C15.57886719 18.29621094 16.27882813 19.13539063 17 20 C15.49176429 24.22306 12.67214848 25.6569133 9 28 C-9.22282609 8.33152174 -9.22282609 8.33152174 -11 3 C-4.01752438 -1.43118645 -4.01752438 -1.43118645 0 0 Z " fill="#294E81" transform="translate(346,581)"/>
<path d="M0 0 C1.44246094 -0.00580078 1.44246094 -0.00580078 2.9140625 -0.01171875 C4.41066406 0.00568359 4.41066406 0.00568359 5.9375 0.0234375 C6.93523437 0.01183594 7.93296875 0.00023437 8.9609375 -0.01171875 C9.92257813 -0.00785156 10.88421875 -0.00398437 11.875 0 C13.18791016 0.00507568 13.18791016 0.00507568 14.52734375 0.01025391 C17.44491625 0.48016277 18.82643751 1.35169269 20.9375 3.3984375 C21.4375 6.3984375 21.4375 6.3984375 20.9375 9.3984375 C16.54891842 13.64768911 11.69914211 12.8768794 5.9375 12.8359375 C4.44089844 12.8659082 4.44089844 12.8659082 2.9140625 12.89648438 C-4.36091799 12.89160838 -4.36091799 12.89160838 -7.71875 10.53125 C-9.40473061 7.85524589 -9.69883715 6.50058111 -9.0625 3.3984375 C-6.10452281 0.59122282 -4.02685307 0.01556773 0 0 Z " fill="#A2C657" transform="translate(199.0625,533.6015625)"/>
<path d="M0 0 C3.68623011 1.61272567 4.75355 2.630325 7 6 C7 7.98 7 9.96 7 12 C-1.58 12 -10.16 12 -19 12 C-18.00608894 7.03044471 -17.34611791 5.53732465 -14 2 C-9.55083695 -0.73794649 -5.07390361 -0.54275144 0 0 Z " fill="#EBEDEB" transform="translate(606,454)"/>
<path d="M0 0 C0.14141393 10.05610192 -0.27095441 19.97562315 -1 30 C-4.3 30 -7.6 30 -11 30 C-10.125 23.25 -10.125 23.25 -9 21 C-8.87851695 19.37834248 -8.82456348 17.75115673 -8.8125 16.125 C-8.79832031 15.26132812 -8.78414063 14.39765625 -8.76953125 13.5078125 C-9.01441619 10.84313236 -9.79556152 9.35174944 -11 7 C-11 5.68 -11 4.36 -11 3 C-9.73160474 2.49384702 -8.46016898 1.99530901 -7.1875 1.5 C-6.12595703 1.08234375 -6.12595703 1.08234375 -5.04296875 0.65625 C-3 0 -3 0 0 0 Z " fill="#254A7F" transform="translate(317,593)"/>
<path d="M0 0 C0.80824219 0.15339844 1.61648438 0.30679688 2.44921875 0.46484375 C2.44921875 3.76484375 2.44921875 7.06484375 2.44921875 10.46484375 C-1.37888946 11.74087982 -4.78553232 11.32768362 -8.73828125 11.02734375 C-9.48787109 10.97513672 -10.23746094 10.92292969 -11.00976562 10.86914062 C-12.85715207 10.73970591 -14.70402496 10.60297857 -16.55078125 10.46484375 C-16.11378906 9.59279297 -16.11378906 9.59279297 -15.66796875 8.703125 C-14.9771036 7.31897909 -14.31031083 5.9221605 -13.68359375 4.5078125 C-10.32215685 -1.68087946 -6.52194856 -0.951937 0 0 Z " fill="#2E5386" transform="translate(380.55078125,552.53515625)"/>
<path d="M0 0 C0.66 0.33 1.32 0.66 2 1 C0.67548828 1.8353125 0.67548828 1.8353125 -0.67578125 2.6875 C-8.32342424 7.5402771 -15.74716015 12.56777097 -23 18 C-23 15 -23 15 -22 13 C-22.66 12.34 -23.32 11.68 -24 11 C-20.04755036 9.13309636 -16.08717336 7.28366591 -12.125 5.4375 C-10.99707031 4.90447266 -9.86914062 4.37144531 -8.70703125 3.82226562 C-7.63066406 3.32275391 -6.55429687 2.82324219 -5.4453125 2.30859375 C-3.95281982 1.60947876 -3.95281982 1.60947876 -2.43017578 0.89624023 C-1.62821777 0.60048096 -0.82625977 0.30472168 0 0 Z " fill="#E8EBE4" transform="translate(340,478)"/>
<path d="M0 0 C0.66 0 1.32 0 2 0 C3.0712828 6.02596573 3.09945415 11.88909517 3 18 C2.67 18 2.34 18 2 18 C1.46635113 15.94077867 0.94857811 13.87743893 0.4375 11.8125 C0.00244141 10.08966797 0.00244141 10.08966797 -0.44140625 8.33203125 C-0.98068761 5.11519907 -0.88247476 3.10327217 0 0 Z " fill="#A2CD5A" transform="translate(417,516)"/>
<path d="M0 0 C0.99 0.33 1.98 0.66 3 1 C3 1.66 3 2.32 3 3 C8.94 3 14.88 3 21 3 C21 3.33 21 3.66 21 4 C14.4 4 7.8 4 1 4 C0.67 2.68 0.34 1.36 0 0 Z " fill="#1F487C" transform="translate(213,588)"/>
<path d="M0 0 C0.66 0 1.32 0 2 0 C2.33 0.99 2.66 1.98 3 3 C1.35 4.65 -0.3 6.3 -2 8 C-1.125 2.25 -1.125 2.25 0 0 Z " fill="#CDD4D8" transform="translate(380,515)"/>
<path d="M0 0 C0.66 0.33 1.32 0.66 2 1 C-0.97 2.65 -3.94 4.3 -7 6 C-7.66 5.34 -8.32 4.68 -9 4 C-7.54618103 3.30300448 -6.08677047 2.61766134 -4.625 1.9375 C-3.40683594 1.36322266 -3.40683594 1.36322266 -2.1640625 0.77734375 C-1.44992187 0.52082031 -0.73578125 0.26429688 0 0 Z " fill="#D9E3C7" transform="translate(340,478)"/>
<path d="M0 0 C-1.98 1.32 -3.96 2.64 -6 4 C-6 2.68 -6 1.36 -6 0 C-3.50907189 -1.24546405 -2.58919267 -0.7767578 0 0 Z " fill="#F1F0F2" transform="translate(333,484)"/>
<path d="M0 0 C0.99 0.33 1.98 0.66 3 1 C1.47793991 3.62901288 0.15634036 5.84365964 -2 8 C-2.125 5.125 -2.125 5.125 -2 2 C-1.34 1.34 -0.68 0.68 0 0 Z " fill="#355984" transform="translate(214,582)"/>
</svg>
